# xmcd CD database file
#
# Track frame offsets:
#	150
#	15415
#	38755
#	62122
#	68995
#	79285
#	87992
#	109837
#	132875
#	143407
#	162420
#	181587
#	196682
#
# Disc length: 2968 seconds
#
# Revision: 0
# Processed by: cddbd v1.5.1PL2 Copyright (c) Steve Scherf et al.
# Submitted via: CDex 1.51
#
DISCID=a20b960d
DTITLE=Duke Ellington - The Duke Vol2
DYEAR=1940
DGENRE=Jazz
TTITLE0=Slap Happy
TTITLE1=Sepia Panorama
TTITLE2=Boy Meets Horn
TTITLE3=Way Down Yonder In New Orleans
TTITLE4=Oh Babe! Maybe Someday
TTITLE5=Five O'Clock Whistle
TTITLE6=Rockin' In Rhythm
TTITLE7=Sophisticated Lady
TTITLE8=Whispering Grass
TTITLE9=Conga Brava
TTITLE10=Stardust
TTITLE11=Rose Of The Rio Grande
TTITLE12=St Louis Blues
EXTD=YEAR: 1940
EXTT0=
EXTT1=
EXTT2=
EXTT3=
EXTT4=
EXTT5=
EXTT6=
EXTT7=
EXTT8=
EXTT9=
EXTT10=
EXTT11=
EXTT12=
PLAYORDER=
